<svg width="18" height="18" viewBox="0 0 18 18" fill="none" xmlns="http://www.w3.org/2000/svg">
<path d="M7.1309 11.8096C7.13919 11.8169 7.14749 11.8252 7.15578 11.8325C7.23356 11.8874 7.28956 11.9662 7.36319 12.0253C7.59341 12.2099 7.85267 12.3105 8.14927 12.3292C8.85238 12.3728 9.46527 11.8439 9.54512 11.148C9.54927 11.1138 9.54719 11.0796 9.54719 11.0453C9.54719 8.95157 9.54719 6.85779 9.54719 4.76298C9.54719 4.62194 9.54719 4.62194 9.68823 4.62194C10.0066 4.62194 10.325 4.62194 10.6433 4.62194C10.6734 4.62194 10.7045 4.61675 10.7315 4.63542C10.7336 4.63749 10.7346 4.63853 10.7367 4.63957C10.7522 4.65512 10.7564 4.67586 10.7605 4.69557C10.8829 5.25972 11.1795 5.70979 11.6451 6.04994C11.6742 6.07068 11.699 6.09764 11.726 6.12046C11.7467 6.13809 11.7665 6.15468 11.7872 6.17231C11.8619 6.21483 11.9158 6.28327 11.9811 6.33823C12.2383 6.5529 12.5297 6.7012 12.8543 6.78416C12.8833 6.79142 12.9155 6.79142 12.9362 6.81838C12.9373 6.82046 12.9393 6.82149 12.9414 6.82253C12.9601 6.84223 12.957 6.86816 12.957 6.89201C12.957 7.2612 12.958 7.63038 12.957 7.99957C12.957 8.08357 12.9456 8.08875 12.8605 8.08875C12.5899 8.08875 12.3244 8.05246 12.062 7.99231C11.6099 7.8886 11.193 7.70505 10.8062 7.45098C10.7865 7.43749 10.7647 7.40949 10.7429 7.41883C10.7159 7.43127 10.7294 7.46653 10.7294 7.49142C10.7284 8.53053 10.7336 9.56964 10.7273 10.6098C10.7232 11.3368 10.4919 11.987 10.0159 12.5397C9.5109 13.1277 8.86897 13.4689 8.09845 13.5633C7.50423 13.6359 6.94112 13.528 6.40601 13.2646C6.31993 13.2221 6.23697 13.1723 6.15919 13.1142C6.1343 13.0925 6.11045 13.0707 6.08556 13.0489C5.90097 12.8965 5.77341 12.6994 5.65312 12.4982C5.46853 12.1871 5.34927 11.8511 5.29119 11.4944C5.25801 11.2901 5.24038 11.0848 5.25178 10.8784C5.28808 10.2126 5.51208 9.61942 5.94141 9.10609C6.30127 8.67572 6.75134 8.37497 7.28127 8.19349C7.50216 8.11779 7.7303 8.07112 7.96467 8.05453C8.00823 8.05142 8.05075 8.04105 8.0943 8.04416C8.11504 8.0452 8.13578 8.04312 8.15445 8.05764C8.15653 8.05972 8.1586 8.06075 8.16067 8.06179C8.17312 8.08253 8.17001 8.10638 8.17001 8.12816C8.17001 8.50253 8.17001 8.87794 8.17001 9.25231C8.17001 9.26579 8.17001 9.27927 8.16897 9.29172C8.1669 9.32905 8.14823 9.34149 8.11297 9.33216C8.0103 9.30312 7.90556 9.28964 7.79978 9.28446C7.63593 9.27616 7.47415 9.29897 7.31964 9.35601C6.80423 9.54579 6.49208 9.91497 6.42675 10.4584C6.36245 10.9935 6.57401 11.4218 7.0189 11.7308C7.0583 11.7568 7.09667 11.7806 7.1309 11.8096Z" fill="black"/>
<path d="M6.16139 13.1153C6.1811 13.1101 6.1925 13.1256 6.20598 13.1339C6.54095 13.3382 6.90184 13.472 7.28969 13.5342C7.48465 13.5653 7.68065 13.5788 7.87769 13.5684C8.53621 13.5342 9.12628 13.3154 9.6365 12.8933C10.127 12.4878 10.4537 11.9755 10.6165 11.3606C10.6684 11.1667 10.6964 10.9686 10.7067 10.7674C10.7129 10.6523 10.7119 10.5361 10.7119 10.421C10.7119 9.43066 10.7119 8.44029 10.7119 7.44992C10.7119 7.4271 10.7119 7.40533 10.7119 7.38251C10.7378 7.37525 10.7492 7.39495 10.7638 7.40429C11.1164 7.64592 11.498 7.82429 11.9107 7.93836C12.1368 8.00058 12.367 8.04207 12.6014 8.06281C12.6999 8.0711 12.7984 8.07007 12.8959 8.07733C12.9384 8.08044 12.9395 8.07836 12.9405 8.03377C12.9415 7.98607 12.9405 7.9394 12.9405 7.8917C12.9405 7.55673 12.9405 7.22177 12.9405 6.88577C12.9405 6.86503 12.9415 6.84429 12.9426 6.82355C13.0307 6.83392 13.1178 6.85258 13.207 6.85881C13.262 6.86295 13.3169 6.86814 13.3719 6.86607C13.3989 6.86503 13.4103 6.87436 13.4072 6.90236C13.4061 6.91377 13.4072 6.92518 13.4072 6.93658C13.4072 7.42088 13.4072 7.90621 13.4072 8.39051C13.4072 8.39984 13.4072 8.40918 13.4072 8.41851C13.4061 8.46103 13.4061 8.46207 13.3615 8.46103C13.2101 8.46103 13.0587 8.45066 12.9084 8.43095C12.6014 8.39051 12.3027 8.31481 12.0144 8.20281C11.7386 8.09496 11.4783 7.95807 11.2335 7.79007C11.218 7.7797 11.2024 7.77036 11.1796 7.75481C11.1796 7.78281 11.1796 7.80251 11.1796 7.82325C11.1796 8.88207 11.1807 9.93984 11.1796 10.9987C11.1786 11.5628 11.0334 12.0875 10.7316 12.5656C10.3676 13.1433 9.86361 13.5487 9.22273 13.7821C8.83384 13.9231 8.43043 13.9781 8.01665 13.947C7.31873 13.8951 6.71517 13.6286 6.2008 13.1557C6.18628 13.1443 6.17487 13.1298 6.16139 13.1153Z" fill="#CB1C54"/>
<path d="M10.7326 4.63542C10.7118 4.63646 10.6911 4.63854 10.6703 4.63854C10.3292 4.63854 9.98797 4.63854 9.64782 4.63854C9.56901 4.63854 9.56901 4.63854 9.56901 4.71528C9.56901 6.79868 9.56901 8.88105 9.57005 10.9645C9.57005 11.1096 9.55968 11.2517 9.51405 11.3896C9.35434 11.8771 9.02664 12.1985 8.52679 12.3126C7.99064 12.435 7.53538 12.2711 7.17242 11.8553C7.16619 11.848 7.16205 11.8397 7.1579 11.8314C7.2616 11.8729 7.36531 11.9144 7.47523 11.9362C7.82471 12.0056 8.15449 11.9517 8.45731 11.7651C8.80782 11.5494 9.01419 11.2331 9.08679 10.8296C9.10027 10.7529 9.10234 10.6751 9.10234 10.5973C9.10234 8.51083 9.10234 6.42328 9.10234 4.33676C9.10234 4.23928 9.08886 4.25172 9.18531 4.25172C9.66649 4.25172 10.1477 4.25172 10.6289 4.25172C10.6403 4.25172 10.6517 4.25172 10.6631 4.25172C10.7118 4.25276 10.7129 4.25276 10.7129 4.30254C10.7118 4.41454 10.7097 4.5255 10.7326 4.63542Z" fill="#6ABAC5"/>
<path d="M8.15659 8.05874C7.86311 8.06807 7.57481 8.11474 7.29585 8.20807C6.89244 8.34185 6.53363 8.55237 6.22044 8.84067C5.80977 9.21919 5.52977 9.67756 5.37629 10.2137C5.32133 10.4045 5.29022 10.6005 5.2757 10.7986C5.2674 10.9179 5.26429 11.0371 5.27155 11.1553C5.28918 11.4861 5.35763 11.8056 5.48311 12.1125C5.62311 12.4558 5.82015 12.7627 6.07629 13.0313C6.08148 13.0365 6.08459 13.0438 6.08874 13.05C6.03066 13.0251 5.984 12.9826 5.93526 12.9442C5.45822 12.5657 5.12118 12.0887 4.93659 11.5069C4.87229 11.3047 4.83185 11.0973 4.81215 10.8857C4.79763 10.7322 4.79659 10.5787 4.80592 10.4263C4.82874 10.0737 4.91274 9.73563 5.05792 9.41311C5.21037 9.07608 5.41777 8.77741 5.68118 8.51919C5.98815 8.21845 6.34385 7.99237 6.74933 7.84719C7.0034 7.75593 7.26474 7.69993 7.53437 7.68022C7.72933 7.6657 7.92326 7.66985 8.11822 7.6937C8.14415 7.69682 8.1597 7.702 8.1597 7.73311C8.15659 7.84304 8.15659 7.95089 8.15659 8.05874Z" fill="#6ABAC5"/>
<path d="M7.13092 11.8097C7.0127 11.7558 6.91003 11.679 6.8167 11.5899C6.58336 11.3648 6.4444 11.091 6.4081 10.7685C6.3324 10.0924 6.75862 9.50956 7.35077 9.32912C7.60381 9.25238 7.85685 9.24927 8.11092 9.31771C8.12544 9.32186 8.13892 9.32808 8.15447 9.32394C8.16277 9.30319 8.15862 9.28245 8.15862 9.26171C8.15862 8.88319 8.15862 8.50468 8.15862 8.12616C8.15862 8.10542 8.1607 8.08468 8.16173 8.06394C8.30796 8.05356 8.45314 8.06705 8.59729 8.08364C8.6201 8.08571 8.62633 8.09712 8.62529 8.11682C8.62529 8.12823 8.62529 8.13964 8.62529 8.15105C8.62529 8.65297 8.62529 9.1549 8.62529 9.65579C8.62529 9.67445 8.63048 9.69312 8.61803 9.71386C8.55166 9.70142 8.48736 9.68171 8.41996 9.67238C8.0321 9.61845 7.68262 9.70868 7.37566 9.95031C7.10603 10.1629 6.9401 10.4419 6.8841 10.7799C6.82499 11.1388 6.89966 11.4716 7.10603 11.7734C7.1164 11.7838 7.12366 11.7973 7.13092 11.8097Z" fill="#CB1C54"/>
<path d="M11.7282 6.12141C11.5819 6.03533 11.4544 5.92645 11.3372 5.80511C11.0219 5.48052 10.8228 5.09578 10.7378 4.65089C10.7367 4.64674 10.7378 4.64363 10.7378 4.63948C10.8736 4.63222 11.0105 4.63845 11.1464 4.63637C11.1702 4.63637 11.1816 4.64571 11.1785 4.66956C11.1775 4.67889 11.1785 4.68822 11.1785 4.69756C11.1713 5.07919 11.2843 5.42763 11.471 5.75533C11.5373 5.87252 11.6172 5.98037 11.7033 6.08408C11.7126 6.09652 11.7261 6.10482 11.7282 6.12141Z" fill="#CB1C54"/>
<path d="M12.9374 6.81933C12.5495 6.73637 12.2083 6.56111 11.9117 6.2977C11.8682 6.25933 11.8236 6.22096 11.7883 6.17326C11.8029 6.17222 11.8132 6.18052 11.8246 6.18674C12.06 6.32156 12.311 6.4097 12.5786 6.45326C12.6823 6.47089 12.788 6.48126 12.8938 6.48022C12.9384 6.48022 12.9394 6.48126 12.9394 6.52378C12.9394 6.62333 12.9384 6.72082 12.9374 6.81933Z" fill="#6ABAC5"/>
</svg>
