<svg width="18" height="18" viewBox="0 0 18 18" fill="none" xmlns="http://www.w3.org/2000/svg">
<path d="M14.7495 6.11197C14.6108 5.59597 14.2055 5.18931 13.6882 5.05064C12.7522 4.79997 9.00015 4.79997 9.00015 4.79997C9.00015 4.79997 5.24815 4.79997 4.31215 5.05064C3.79615 5.18931 3.38949 5.59464 3.25082 6.11197C3.00015 7.04797 3.00015 8.99997 3.00015 8.99997C3.00015 8.99997 3.00015 10.952 3.25082 11.888C3.38815 12.404 3.79482 12.8106 4.31215 12.9493C5.24815 13.2 9.00015 13.2 9.00015 13.2C9.00015 13.2 12.7522 13.2 13.6882 12.9493C14.2042 12.8106 14.6108 12.4053 14.7495 11.888C15.0002 10.952 15.0002 8.99997 15.0002 8.99997C15.0002 8.99997 15.0002 7.04797 14.7495 6.11197ZM7.80015 10.8V7.19997L10.9175 8.99997L7.80015 10.8Z" fill="#FF0000"/>
</svg>
